<?xml version="1.0" encoding="UTF-8" standalone="no"?>
<!-- Created with Inkscape (http://www.inkscape.org/) -->

<svg
   version="1.1"
   id="svg182"
   width="2360"
   height="580"
   viewBox="0 0 2360 580"
   sodipodi:docname="Group 192.svg"
   inkscape:version="1.2.2 (732a01da63, 2022-12-09)"
   xmlns:inkscape="http://www.inkscape.org/namespaces/inkscape"
   xmlns:sodipodi="http://sodipodi.sourceforge.net/DTD/sodipodi-0.dtd"
   xmlns="http://www.w3.org/2000/svg"
   xmlns:svg="http://www.w3.org/2000/svg">
  <defs
     id="defs186" />
  <sodipodi:namedview
     id="namedview184"
     pagecolor="#ffffff"
     bordercolor="#000000"
     borderopacity="0.25"
     inkscape:showpageshadow="2"
     inkscape:pageopacity="0.0"
     inkscape:pagecheckerboard="0"
     inkscape:deskcolor="#d1d1d1"
     showgrid="false"
     inkscape:zoom="0.5"
     inkscape:cx="1363"
     inkscape:cy="209"
     inkscape:window-width="2560"
     inkscape:window-height="1337"
     inkscape:window-x="-10"
     inkscape:window-y="-10"
     inkscape:window-maximized="1"
     inkscape:current-layer="g188" />
  <g
     inkscape:groupmode="layer"
     inkscape:label="Image"
     id="g188">
    <g
       id="g16070">
      <rect
         style="fill:#3d3d3d;fill-opacity:1;stroke:none;stroke-width:0.377953;stroke-linecap:round"
         id="rect4072"
         width="1139.4395"
         height="463.01428"
         x="1219.3125"
         y="87.361183" />
      <path
         id="path10198"
         style="font-weight:500;font-size:409.457px;font-family:'Kiwi Maru';-inkscape-font-specification:'Kiwi Maru Medium';letter-spacing:-27.0774px;word-spacing:0px;fill:#ffffff;fill-opacity:1;stroke-width:0.635482;stroke-linecap:round"
         d="m 1219.2674,467.00391 c 6.0082,-0.94102 11.7872,-2.44368 16.877,-4.4297 9.9498,-3.77438 18.5192,-8.358 25.7051,-13.74999 7.186,-5.6616 12.99,-11.18809 17.4121,-16.58007 1.6584,-2.1568 3.454,-2.29149 5.3887,-0.40431 9.6734,10.24479 17.5505,17.9284 23.6309,23.05078 6.0805,4.85281 12.4371,8.08748 19.0703,9.70508 6.6332,1.8872 15.4779,3.10142 26.5331,3.64063 h 1.6583 c 5.5278,0.2696 10.2263,-1.07932 14.0957,-4.04492 4.1457,-2.96561 6.2188,-7.00848 6.2188,-12.13086 0,-5.12241 -1.9353,-9.30193 -5.8047,-12.53711 -3.593,-3.5048 -8.0144,-5.12311 -13.2657,-4.85351 -1.9345,0.26959 -3.87,0.40625 -5.8047,0.40625 h -4.5586 c -6.3568,0 -11.3327,-0.67545 -14.9257,-2.02344 -3.593,-1.61761 -7.0487,-4.0441 -10.3653,-7.2793 -3.0403,-3.5048 -7.1843,-7.95177 -12.4355,-13.34375 l -7.877,-8.89844 c -1.1055,-1.61759 -1.2451,-3.36866 -0.416,-5.25586 l 30.6797,-53.78516 c 1.1055,-1.6176 2.4863,-2.42773 4.1445,-2.42773 h 0.8301 c 2.7638,0.2696 5.3895,0.539 7.877,0.8086 2.4874,0 4.9753,0.27134 7.4628,0.81054 5.2513,0.2696 9.6726,-1.21401 13.2656,-4.44922 3.593,-3.2352 5.3888,-7.41472 5.3888,-12.53711 0,-4.8528 -1.9334,-8.89567 -5.8028,-12.13085 -3.593,-3.50481 -7.8767,-4.98843 -12.8516,-4.44922 -6.9096,0.53919 -13.1287,0.94328 -18.6562,1.21288 -5.2513,0.2696 -10.5026,0.40431 -15.7539,0.40431 -5.2514,0 -10.5027,-0.13471 -15.7539,-0.40431 -5.2514,-0.2696 -11.4703,-0.67369 -18.6563,-1.21288 -4.9748,-0.53921 -9.3963,0.94441 -13.2656,4.44922 -3.5931,3.23518 -5.3906,7.27805 -5.3906,12.13085 0,4.85279 1.658,8.89761 4.9746,12.13282 3.3167,3.2352 7.3249,4.85351 12.0234,4.85351 1.9347,0 3.7305,-0.13665 5.3887,-0.40625 1.6581,-0.2696 3.3182,-0.53899 4.9766,-0.80859 2.4874,0 3.7305,0.81014 3.7305,2.42773 0,0.2696 -0.2775,0.94308 -0.8302,2.02148 l -14.9238,25.07227 c -1.3819,2.4264 -3.0399,2.56109 -4.9746,0.4043 l -48.5059,-52.97656 c -1.6584,-2.15681 -1.383,-3.90787 0.8281,-5.25587 8.8443,-4.58318 16.9985,-9.7056 24.461,-15.36718 7.7388,-5.66158 13.8201,-12.26762 18.2422,-19.8164 4.6985,-7.81841 7.0469,-17.255 7.0469,-28.3086 0,-10.51439 -2.2107,-19.54497 -6.6328,-27.09375 -4.1457,-7.54879 -9.5348,-13.61604 -16.168,-18.19922 -6.3568,-4.5832 -13.1284,-7.95257 -20.3144,-10.10938 -4.845,-1.45417 -9.595,-2.36426 -13.9373,-2.838 l 10e-5,29.70671 c 1.931,0.40157 4.1914,1.10316 6.4704,1.84418 4.9749,1.61761 9.3963,4.4482 13.2657,8.49219 4.1456,3.77441 6.2187,9.43559 6.2187,16.98438 0,11.05359 -3.8687,19.68203 -11.6075,25.88281 -4.1841,3.2069 -9.1547,6.67982 -14.3893,9.65026 l -0.024,72.91481 c 5.7955,6.50929 11.9987,13.30259 18.1425,20.15173 8.0151,8.3576 15.2018,15.90648 21.5586,22.64648 1.382,1.8872 1.504,3.8238 0.3984,5.4414 -6.6331,9.1664 -14.7855,16.71529 -24.4589,22.64649 -4.4314,2.71713 -9.7859,4.74048 -15.6094,6.21287"
         sodipodi:nodetypes="ccccccccccsccssccccccscccsscccssccsssscscccccccsccsccscsccccccsc" />
      <path
         id="path10194"
         style="font-weight:500;font-size:409.457px;font-family:'Kiwi Maru';-inkscape-font-specification:'Kiwi Maru Medium';letter-spacing:-27.0774px;word-spacing:0px;fill:#069d3d;fill-opacity:1;stroke-width:0.635482;stroke-linecap:round"
         d="m 1213.7751,192.1002 c -8.8443,0 -18.3792,2.02046 -28.6054,6.06445 -10.2262,4.04399 -18.9331,10.38062 -26.1191,19.00781 -7.186,8.6272 -10.7793,19.81486 -10.7793,33.56446 0,10.78399 2.3503,20.75938 7.0488,29.92577 4.9749,8.89679 10.2263,16.5804 15.7539,23.05079 1.9347,2.15679 1.5197,3.9098 -1.2441,5.25781 -10.779,5.9312 -20.8667,13.61479 -30.2637,23.05078 -9.3972,9.43598 -16.3064,22.1073 -20.7285,38.01367 -1.9347,6.47039 -2.9023,13.34582 -2.9023,20.62501 0,14.01917 3.7308,26.95987 11.1933,38.82226 7.7387,11.59278 18.1037,21.0294 31.0937,28.30859 12.9902,7.00959 27.7763,10.51368 44.3594,10.51368 5.9899,0 11.4477,-0.50215 16.7325,-1.30469 v -32.00976 c -6.7778,1.66504 -14.3075,2.58007 -22.9473,2.58007 -11.8846,0 -21.4194,-2.4265 -28.6055,-7.27929 -7.1859,-5.12241 -12.4372,-11.32433 -15.7539,-18.60352 -3.0402,-7.2792 -4.5605,-14.42204 -4.5605,-21.43164 v -2.83203 c 0,-1.07841 0.1378,-2.15597 0.4141,-3.23438 2.2111,-12.6712 7.3247,-23.05067 15.3398,-31.13867 8.0152,-8.08799 17.5501,-15.09811 28.6055,-21.0293 1.9347,-1.0784 3.5926,-0.809 4.9746,0.80859 5.2513,5.39201 11.4702,12.13272 18.6563,20.22071 1.2976,1.46056 2.5925,3.49647 3.9082,4.9746 l -0.031,-73.07259 c -4.3107,2.42498 -8.8119,4.76691 -13.8261,7.03354 -1.9347,0.80879 -3.5926,0.40471 -4.9746,-1.2129 -6.9096,-7.81838 -12.1611,-14.82851 -15.7539,-21.02929 -3.3166,-6.2008 -4.9766,-12.26803 -4.9766,-18.19922 0,-8.08799 2.073,-14.28796 6.2188,-18.60156 4.1457,-4.31359 8.8443,-7.27888 14.0957,-8.89649 5.5276,-1.6176 10.0885,-2.42774 13.6816,-2.42774 1.6825,0 3.4348,0.0872 5.5439,0.50348 l -0.011,-29.70403 c -1.9454,-0.19831 -3.6851,-0.31897 -5.5288,-0.31897 z"
         sodipodi:nodetypes="sssscccscsccsccsccsscsccscccccsscsccss" />
      <path
         d="m 257.60051,233.27931 q 0.82915,7.68361 -4.97492,13.74963 -5.80407,6.06601 -14.51017,6.06601 -8.70611,0 -14.51019,-6.06601 -5.38949,-6.06602 -4.97491,-13.74963 l 2.07288,-29.52125 q 0,-3.63961 -3.31661,-3.63961 h -60.52817 q -3.73119,0 -3.73119,3.63961 v 226.86881 q 0,3.23521 2.90204,3.23521 4.97491,0 9.53526,-0.40441 4.97491,-0.8088 9.12068,-1.2132 8.29153,-0.8088 14.0956,4.85282 5.80407,5.2572 5.80407,13.34522 0,7.68361 -5.80407,12.94082 -5.80407,5.25721 -14.0956,4.85281 -12.02272,-1.21321 -19.07052,-1.6176 -6.63322,-0.40441 -11.19357,-0.80881 -4.56033,0 -9.94982,0 -5.80408,0 -10.36442,0 -4.56035,0.4044 -11.19357,0.80881 -6.21864,0.40439 -18.24136,1.6176 -7.876953,0.4044 -14.095601,-4.85281 -5.80407,-5.25721 -5.80407,-12.94082 0,-8.08802 5.80407,-13.34522 6.218648,-5.66162 14.095601,-4.85282 4.145765,0.4044 8.7061,0.80881 4.56035,0.40439 9.12068,0.8088 h 0.82916 q 2.90204,0 2.90204,-3.23521 V 203.75806 q 0,-3.63961 -3.7312,-3.63961 H 51.555996 q -3.316612,0 -3.316612,3.63961 l 2.072882,29.52125 q 0.829153,7.68361 -4.974918,13.74963 -5.80407,6.06601 -14.510176,6.06601 -8.706107,0 -14.510177,-6.06601 -5.389495,-6.06602 -4.974918,-13.74963 0.829153,-9.30121 1.658306,-20.22003 0.829153,-10.91882 1.243729,-21.83764 0.829153,-11.32323 8.706106,-19.00684 8.29153,-7.68361 19.485095,-7.68361 H 226.92185 q 10.77899,0 19.07052,7.68361 8.29153,7.68361 8.70611,19.00684 0.82914,10.91882 1.65829,21.83764 0.82916,10.91882 1.24374,20.22003 z"
         id="path7838"
         style="font-weight:500;font-size:409.457px;font-family:'Kiwi Maru';-inkscape-font-specification:'Kiwi Maru Medium';letter-spacing:-27.0774px;word-spacing:0px;fill:#069d3d;stroke-width:0.635482;stroke-linecap:round" />
      <path
         d="m 465.66399,275.33699 q 0,10.11002 -7.46238,17.79363 -7.46239,7.27921 -18.65594,7.27921 -7.46238,0 -13.68103,-3.6396 -5.80407,-4.04401 -9.53526,-9.70562 -1.24373,-2.83081 -4.56034,-2.4264 -19.48509,2.8308 -37.31188,22.64644 -17.82679,19.41124 -27.36206,48.93249 -0.82914,1.61759 -0.82914,4.4484 v 72.79213 q 0,3.23521 2.90203,3.23521 4.56035,0 8.29153,-0.4044 4.14577,-0.8088 8.29153,-0.8088 7.0478,0 12.02272,4.85281 4.97492,4.44841 4.97492,11.72762 0,7.27921 -5.80407,12.13203 -5.3895,4.8528 -12.85188,4.4484 -12.85187,-1.2132 -20.72882,-2.022 -7.46237,-0.40441 -14.92475,-0.40441 -8.70611,0 -16.16848,0.40441 -7.46238,0.8088 -19.4851,2.022 -7.46238,0.4044 -13.26645,-4.4484 -5.38949,-4.85282 -5.38949,-12.13203 0,-7.27921 4.97492,-11.72762 4.97491,-4.85281 12.02271,-4.85281 3.31662,0 7.04781,0.4044 4.14576,0.4044 8.29153,0.8088 h 0.82914 q 2.90204,0 2.90204,-3.23521 V 287.87341 q 0,-3.2352 -2.90204,-3.2352 -7.46237,0 -14.51017,1.2132 -8.29153,0.4044 -14.51018,-4.85282 -5.80407,-5.2572 -5.80407,-13.34522 0,-8.08801 6.21865,-13.34522 6.21864,-5.25721 14.0956,-4.4484 8.29153,0.80879 12.85187,1.2132 4.97492,0.40439 9.53526,0.40439 4.97492,0 13.26645,0 7.46238,0 12.43729,5.25721 5.3895,5.25722 5.3895,12.13202 v 16.58044 q 0,2.4264 1.24372,2.8308 1.65831,0.40441 3.31662,-1.6176 27.36205,-34.37406 67.16139,-39.22688 2.90203,-0.40439 5.38949,-0.40439 2.90204,-0.4044 5.80407,-0.4044 15.75391,0 26.11832,7.27921 10.36442,7.27921 10.36442,21.43324 z"
         id="path7840"
         style="font-weight:500;font-size:409.457px;font-family:'Kiwi Maru';-inkscape-font-specification:'Kiwi Maru Medium';letter-spacing:-27.0774px;word-spacing:0px;fill:#069d3d;stroke-width:0.635482;stroke-linecap:round" />
      <path
         d="m 652.16945,433.05328 q 1.24373,-0.40441 3.73118,-0.40441 7.0478,0 12.02272,5.25721 4.97492,4.85281 4.97492,12.53643 0,8.49241 -6.21865,13.74963 -6.21864,5.6616 -14.51017,4.044 -6.21866,-1.6176 -12.4373,-2.42641 -5.80407,-0.40439 -11.19356,-0.8088 -8.29153,0 -14.92476,-4.44841 -6.63323,-4.4484 -9.94983,-11.32321 -2.07289,-3.63962 -4.97493,-1.2132 -14.09559,10.11001 -30.26408,14.96281 -16.16848,5.25722 -38.14103,5.25722 -29.02035,0 -47.6763,-16.17603 -18.65594,-16.58043 -18.65594,-42.46208 0,-19.81563 9.94984,-34.77846 9.94984,-15.36723 27.36205,-23.85964 17.82678,-8.89682 41.45764,-8.89682 12.4373,0 25.70374,2.4264 13.68102,2.42641 28.19121,8.08802 0.41458,0 0.82915,0.4044 0.41457,0 0.82915,0 2.90204,0 2.90204,-3.23521 V 337.2103 q 0,-27.49925 -14.51018,-40.84447 -14.0956,-13.74963 -33.99527,-13.74963 -6.21865,0 -12.85187,1.6176 -6.21865,1.21321 -12.85188,3.63961 -3.3166,1.2132 -2.07287,4.44841 0.41458,1.6176 0.41458,2.83081 0.41456,1.2132 0.41456,2.8308 0,10.11001 -7.46237,18.19803 -7.46238,7.68362 -19.07052,7.68362 -12.02272,0 -19.48509,-8.08801 -7.0478,-8.49242 -7.0478,-19.00684 0,-5.25721 2.07288,-10.51442 2.07289,-5.25722 6.21865,-9.70562 11.60814,-12.94083 28.60577,-19.81564 17.41221,-7.27921 36.89731,-7.27921 43.11595,0 66.74682,23.05085 23.63086,22.64644 23.63086,64.70411 v 94.22537 q 0,3.63961 2.90203,3.63961 3.31661,0 6.21864,-0.8088 3.31662,-0.80881 6.21866,-1.2132 z m -121.88549,1.2132 q 22.8017,-0.80881 38.14103,-7.27922 15.75391,-6.47041 31.09324,-21.43324 1.65831,-2.02199 1.65831,-4.44841 v -8.89681 q 0,-2.8308 -2.48747,-4.04401 -8.7061,-4.44841 -21.55797,-8.89681 -12.43729,-4.44841 -33.5807,-4.44841 -21.14339,0 -33.16612,9.30122 -12.02271,8.89681 -12.02271,25.47724 0,10.91882 8.70611,17.79364 9.12068,6.87481 23.21628,6.87481 z"
         id="path7842"
         style="font-weight:500;font-size:409.457px;font-family:'Kiwi Maru';-inkscape-font-specification:'Kiwi Maru Medium';letter-spacing:-27.0774px;word-spacing:0px;fill:#069d3d;stroke-width:0.635482;stroke-linecap:round" />
      <path
         d="m 873.49911,407.17163 q 5.80406,6.47041 5.80406,13.74963 0,6.47041 -4.97491,12.13202 -15.33933,16.58042 -36.8973,25.88164 -21.55799,9.30122 -44.77427,9.30122 -26.94746,0 -48.50545,-9.30122 -21.1434,-9.70561 -36.06815,-25.47725 -14.51017,-15.77162 -22.38713,-35.18286 -7.46237,-19.41123 -7.46237,-39.22686 0,-31.13886 14.0956,-55.80731 14.51017,-24.66845 38.97018,-39.22687 24.87459,-14.55843 55.96783,-14.55843 48.92003,0 77.94038,33.16086 14.92475,16.98484 14.92475,32.75646 0,7.27922 -3.73119,14.15402 -7.46237,12.94083 -22.8017,12.94083 -11.19357,0 -18.65595,-7.68361 -7.46237,-8.08801 -7.46237,-18.60244 0,-6.47041 4.14576,-13.34522 1.65831,-2.83081 -0.41458,-4.85281 -13.68102,-15.77162 -43.9451,-15.77162 -21.1434,0 -37.72646,10.11001 -16.58306,9.70562 -26.11832,27.09485 -9.12068,16.98483 -9.12068,39.63128 0,21.02883 9.94984,38.41806 10.3644,16.98483 27.77661,27.09485 17.41222,9.70562 39.38477,9.70562 32.75154,0 58.86986,-26.69045 4.97492,-5.66161 12.02273,-5.66161 6.63322,0 11.19356,5.25721 z"
         id="path7844"
         style="font-weight:500;font-size:409.457px;font-family:'Kiwi Maru';-inkscape-font-specification:'Kiwi Maru Medium';letter-spacing:-27.0774px;word-spacing:0px;fill:#069d3d;stroke-width:0.635482;stroke-linecap:round" />
      <path
         d="m 1101.0474,435.47968 q 7.0478,0 12.0228,4.85281 4.9749,4.44841 4.9749,11.72762 0,7.27921 -5.3895,11.72762 -5.3895,4.85281 -13.2665,4.44841 -12.8518,-1.21321 -20.3142,-1.6176 -7.0478,-0.40441 -13.6811,-0.40441 -7.4623,0 -14.5101,0.40441 -7.0478,0.8088 -19.0705,1.6176 -7.877,0.4044 -13.2665,-4.44841 -5.3894,-4.44841 -5.3894,-11.72762 0,-7.68362 5.3894,-12.53642 5.3895,-4.85282 13.2665,-4.04401 0.4146,0 0.4146,-0.80881 0,-1.2132 -1.2438,-3.6396 l -46.43254,-65.91732 q -2.07288,-3.6396 -4.97491,-0.8088 l -21.1434,17.38923 q -2.07289,2.022 -2.07289,4.44841 v 46.91049 q 0,3.6396 3.73119,3.2352 l 12.02272,-0.8088 q 7.87695,-0.80881 13.26644,4.04401 5.3895,4.8528 5.3895,12.53642 0,7.27921 -5.3895,11.72762 -5.38949,4.85281 -13.26644,4.44841 -12.85187,-1.21321 -20.31425,-1.6176 -7.0478,-0.40441 -13.26645,-0.40441 -4.56033,0 -8.29153,0 -3.73118,0.40441 -9.53526,0.8088 -5.38949,0.40441 -16.16848,1.21321 -7.87695,0.4044 -13.26645,-4.44841 -5.38949,-4.44841 -5.38949,-11.72762 0,-7.68362 5.38949,-12.53642 5.3895,-4.85282 13.26645,-4.04401 l 12.02272,0.8088 h 0.82916 q 2.90202,0 2.90202,-3.2352 V 193.64804 q 0,-3.2352 -2.90202,-3.2352 -3.7312,0 -7.46238,0.8088 -3.31662,0.4044 -7.46238,0.4044 -6.63323,0 -11.60814,-4.44841 -4.97492,-4.85281 -4.97492,-11.72762 0,-7.68362 5.38949,-12.53643 5.3895,-4.8528 13.26645,-4.044 6.21865,0.4044 12.4373,1.2132 6.63322,0.4044 12.02271,0.80881 11.19357,0.40439 19.07052,8.08801 8.29153,7.68361 8.29153,18.60243 V 336.4015 q 0,2.022 1.24373,2.8308 1.65831,0.80881 3.31661,-0.8088 l 62.6011,-51.76329 q 2.0729,-1.61761 2.4874,-2.83081 0.8291,-1.61759 -0.4145,-1.61759 -1.6584,0 -2.9021,0.40439 -0.8291,0 -2.902,0 -7.0478,0 -12.4373,-4.85281 -4.9749,-4.85281 -4.9749,-11.72761 0,-7.27922 5.3894,-12.13203 5.8041,-5.25721 13.2664,-4.44841 13.2666,1.2132 20.3143,2.022 7.0478,0.40441 13.2665,0.40441 7.8769,0 14.5102,-0.40441 7.0477,-0.8088 19.485,-2.022 7.4625,-0.8088 12.8519,4.44841 5.8041,4.85281 5.8041,12.13203 0,7.2792 -5.8041,12.13202 -5.3894,4.8528 -12.8519,4.4484 -2.4874,0 -4.1457,-0.40439 -2.902,0 -4.5604,1.61759 l -67.1613,54.99851 q -2.9021,2.83079 -0.8292,5.25721 l 63.4302,90.58575 q 2.0729,2.42642 4.5603,2.42642 5.3896,-0.80881 10.779,-1.21321 5.3896,-0.4044 10.3644,-0.4044 z"
         id="path7846"
         style="font-weight:500;font-size:409.457px;font-family:'Kiwi Maru';-inkscape-font-specification:'Kiwi Maru Medium';letter-spacing:-27.0774px;word-spacing:0px;fill:#069d3d;stroke-width:0.635482;stroke-linecap:round" />
      <path
         id="path10212"
         d="m 1219.3515,357.87233 c -0.1432,-0.16088 -0.2863,-0.32167 -0.4294,-0.48236"
         style="font-weight:500;font-size:409.457px;font-family:'Kiwi Maru';-inkscape-font-specification:'Kiwi Maru Medium';letter-spacing:-27.0774px;word-spacing:0px;fill:#ff0000;stroke-width:0.635482;stroke-linecap:round" />
      <path
         id="path10204"
         d="m 1219.4624,222.26345 c -0.142,-0.0295 -0.283,-0.0581 -0.4231,-0.0858"
         style="font-weight:500;font-size:409.457px;font-family:'Kiwi Maru';-inkscape-font-specification:'Kiwi Maru Medium';letter-spacing:-27.0774px;word-spacing:0px;fill:#ff0000;stroke-width:0.635482;stroke-linecap:round" />
      <path
         id="path10200"
         d="m 1219.1028,284.84446 c 0.1427,-0.0804 0.2851,-0.16085 0.427,-0.24141"
         style="font-weight:500;font-size:409.457px;font-family:'Kiwi Maru';-inkscape-font-specification:'Kiwi Maru Medium';letter-spacing:-27.0774px;word-spacing:0px;fill:#ff0000;stroke-width:0.635482;stroke-linecap:round" />
      <path
         id="path10192"
         d="m 1219.4981,466.9651 c -0.1451,0.0227 -0.2904,0.0451 -0.436,0.0673"
         style="font-weight:500;font-size:409.457px;font-family:'Kiwi Maru';-inkscape-font-specification:'Kiwi Maru Medium';letter-spacing:-27.0774px;word-spacing:0px;fill:#ff0000;stroke-width:0.635482;stroke-linecap:round" />
      <path
         d="m 1432.186,240.96292 q -1.2437,15.36724 6.6333,25.07286 8.2914,9.30121 22.3871,15.77162 14.5101,6.47041 31.9223,11.72762 17.4122,5.25721 34.8244,11.72762 17.4123,6.06601 31.9224,15.77163 14.9248,9.30122 23.631,24.26405 9.1206,14.55842 9.1206,37.20486 0,24.66845 -13.6811,44.07968 -13.2664,19.41124 -36.8972,30.73446 -23.6309,11.32322 -53.4804,11.32322 -37.3119,0 -62.1864,-12.94082 -24.8747,-13.34523 -38.5556,-29.11686 -10.3645,-11.72762 -10.3645,-25.07284 0,-11.32323 7.4624,-19.41124 7.4624,-8.08802 21.5579,-8.08802 11.6082,0 19.0705,8.49242 7.877,8.49242 7.877,19.00684 0,5.25721 -2.4874,10.91882 -1.2438,3.23521 0.8291,4.8528 10.779,8.08802 24.0454,12.13202 13.6811,4.04401 27.3621,4.04401 18.2414,0 34.8245,-6.066 16.583,-6.47041 26.9474,-17.79364 10.3644,-11.72762 10.3644,-27.09485 0,-13.74963 -8.7061,-22.64644 -8.7061,-9.30121 -23.2163,-15.36723 -14.0955,-6.47041 -31.0932,-11.72762 -16.9976,-5.25721 -34.4099,-11.72762 -16.9976,-6.47041 -31.5077,-15.77163 -14.0957,-9.70561 -22.8018,-23.85964 -8.7061,-14.15402 -8.7061,-35.18287 0,-23.05084 8.2916,-39.22687 8.7061,-16.58042 23.2163,-26.28604 14.5101,-10.11003 32.3369,-14.55843 17.8268,-4.85281 36.4827,-4.85281 23.6309,0 45.1888,6.47041 21.558,6.47042 34.8245,17.79363 13.681,11.32323 13.681,25.88165 -0.4145,11.32323 -8.7061,19.41124 -7.877,8.08802 -19.4851,8.08802 -11.6082,0 -19.8997,-8.08802 -7.8769,-8.08801 -7.8769,-19.41124 0,-4.04401 0.4146,-5.66161 0.8291,-3.2352 -0.4146,-3.6396 -5.3895,-2.83081 -16.1685,-4.85281 -10.3644,-2.02201 -22.3871,-2.02201 -13.6811,0 -27.7766,4.04401 -13.6811,3.6396 -23.2163,13.74963 -9.5353,9.70562 -11.1936,27.90364 z"
         style="font-weight:500;font-size:409.457px;font-family:'Kiwi Maru';-inkscape-font-specification:'Kiwi Maru Medium';letter-spacing:-27.0774px;word-spacing:0px;fill:#ffffff;stroke-width:0.635482;stroke-linecap:round"
         id="path7850" />
      <path
         d="m 1799.8618,433.05328 q 1.2437,-0.40441 3.7311,-0.40441 7.0479,0 12.0228,5.25721 4.9749,4.85281 4.9749,12.53643 0,8.49241 -6.2187,13.74963 -6.2186,5.6616 -14.5101,4.044 -6.2186,-1.6176 -12.4373,-2.42641 -5.8041,-0.40439 -11.1936,-0.8088 -8.2915,0 -14.9248,-4.44841 -6.6332,-4.4484 -9.9497,-11.32321 -2.0729,-3.63962 -4.975,-1.2132 -14.0956,10.11001 -30.2641,14.96281 -16.1684,5.25722 -38.141,5.25722 -29.0203,0 -47.6763,-16.17603 -18.6559,-16.58043 -18.6559,-42.46208 0,-19.81563 9.9498,-34.77846 9.9498,-15.36723 27.3621,-23.85964 17.8267,-8.89682 41.4576,-8.89682 12.4373,0 25.7037,2.4264 13.6811,2.42641 28.1912,8.08802 0.4147,0 0.8292,0.4044 0.4146,0 0.8291,0 2.9021,0 2.9021,-3.23521 V 337.2103 q 0,-27.49925 -14.5102,-40.84447 -14.0956,-13.74963 -33.9952,-13.74963 -6.2187,0 -12.8519,1.6176 -6.2187,1.21321 -12.8519,3.63961 -3.3166,1.2132 -2.0729,4.44841 0.4146,1.6176 0.4146,2.83081 0.4145,1.2132 0.4145,2.8308 0,10.11001 -7.4623,18.19803 -7.4624,7.68362 -19.0705,7.68362 -12.0228,0 -19.4851,-8.08801 -7.0478,-8.49242 -7.0478,-19.00684 0,-5.25721 2.0728,-10.51442 2.0729,-5.25722 6.2187,-9.70562 11.6082,-12.94083 28.6058,-19.81564 17.4122,-7.27921 36.8973,-7.27921 43.1159,0 66.7468,23.05085 23.6308,22.64644 23.6308,64.70411 v 94.22537 q 0,3.63961 2.9021,3.63961 3.3166,0 6.2187,-0.8088 3.3165,-0.80881 6.2186,-1.2132 z m -121.8855,1.2132 q 22.8017,-0.80881 38.141,-7.27922 15.754,-6.47041 31.0933,-21.43324 1.6583,-2.02199 1.6583,-4.44841 v -8.89681 q 0,-2.8308 -2.4875,-4.04401 -8.7061,-4.44841 -21.558,-8.89681 -12.4373,-4.44841 -33.5806,-4.44841 -21.1434,0 -33.1662,9.30122 -12.0227,8.89681 -12.0227,25.47724 0,10.91882 8.7061,17.79364 9.1207,6.87481 23.2163,6.87481 z"
         style="font-weight:500;font-size:409.457px;font-family:'Kiwi Maru';-inkscape-font-specification:'Kiwi Maru Medium';letter-spacing:-27.0774px;word-spacing:0px;fill:#ffffff;stroke-width:0.635482;stroke-linecap:round"
         id="path7852" />
      <path
         d="m 2052.6994,249.85975 q 7.8768,-0.80881 13.2664,4.044 5.3895,4.85281 5.3895,12.13203 0,7.68361 -5.3895,12.53641 -5.3896,4.44841 -13.2664,4.04401 l -9.5354,-0.8088 h -0.8291 q -2.0729,0 -3.7312,2.4264 l -76.6966,172.67912 q -2.0729,5.25721 -7.4624,8.49242 -4.9749,3.2352 -10.7789,3.2352 -12.852,0 -18.2414,-11.32322 L 1844.9965,284.2338 q -1.6583,-2.8308 -4.5603,-2.4264 l -9.1207,0.8088 q -7.877,0.4044 -13.2665,-4.04401 -5.3894,-4.8528 -5.3894,-12.53641 0,-7.27922 5.3894,-12.13203 5.3895,-4.85281 13.2665,-4.044 10.779,0.80879 18.6559,1.2132 7.877,0.40439 15.3394,0.40439 7.4623,0 15.3393,-0.40439 7.877,-0.40441 18.2413,-1.2132 7.877,-0.80881 13.2665,4.044 5.3895,4.85281 5.3895,12.13203 0,7.68361 -5.3895,12.53641 -5.3895,4.44841 -13.2665,4.04401 l -11.1935,-0.8088 h -0.8291 q -4.1458,0 -2.0729,4.04401 l 56.797,124.15103 q 1.2437,2.4264 2.4874,2.4264 2.0729,0 2.4875,-2.4264 l 53.0658,-124.15103 q 0.4145,-0.80881 0.4145,-2.02201 0,-2.022 -3.3166,-2.022 l -11.6081,0.8088 q -7.877,0.4044 -13.2665,-4.04401 -5.3895,-4.8528 -5.3895,-12.53641 0,-7.27922 5.3895,-12.13203 5.3895,-4.85281 13.2665,-4.044 10.7789,0.80879 18.6559,1.2132 7.8769,0.40439 15.3393,0.40439 7.0478,0 14.9248,-0.40439 8.2915,-0.40441 18.656,-1.2132 z"
         style="font-weight:500;font-size:409.457px;font-family:'Kiwi Maru';-inkscape-font-specification:'Kiwi Maru Medium';letter-spacing:-27.0774px;word-spacing:0px;fill:#ffffff;stroke-width:0.635482;stroke-linecap:round"
         id="path7854" />
      <path
         d="m 2252.0565,374.81957 h -142.1997 q -4.1458,0 -3.3167,4.04401 6.6332,24.66845 26.533,40.44007 19.8996,15.36722 45.6034,15.36722 30.6787,0 53.0657,-23.85964 6.2187,-6.87481 14.9248,-6.87481 5.3895,0 9.9499,3.23521 7.877,5.25721 7.877,14.15402 0,5.66161 -3.7313,10.11002 -15.3393,17.38923 -36.8972,27.09485 -21.5581,9.70562 -45.1889,9.70562 -22.8017,0 -42.7014,-8.49242 -19.4851,-8.49241 -34.8244,-23.45524 -14.9248,-15.36722 -23.6309,-35.18287 -8.2915,-19.81563 -8.2915,-42.05766 0,-30.73447 13.681,-55.40291 14.0956,-25.07285 38.141,-39.63127 24.0455,-14.55843 53.4804,-14.55843 43.116,0 70.8926,26.28605 27.7766,26.28605 32.7515,71.98333 1.2438,10.91882 -6.6332,19.00684 -7.4624,8.08801 -19.4851,8.08801 z M 2174.5307,281.403 q -26.5329,0 -44.3597,14.55842 -17.8268,14.55844 -23.6309,40.84448 v 0.8088 q 0,3.23521 3.3167,3.23521 h 127.275 q 4.1458,0 3.3165,-4.44841 -11.1935,-54.9985 -65.9176,-54.9985 z"
         style="font-weight:500;font-size:409.457px;font-family:'Kiwi Maru';-inkscape-font-specification:'Kiwi Maru Medium';letter-spacing:-27.0774px;word-spacing:0px;fill:#ffffff;stroke-width:0.635482;stroke-linecap:round"
         id="path7856" />
    </g>
  </g>
</svg>
